<svg width="24" height="24" viewBox="0 0 24 24" fill="none" xmlns="http://www.w3.org/2000/svg">
<path d="M16.1571 13.5429C15.7286 13.2857 15.2143 13.2857 14.7857 13.4571C14.1857 13.7143 13.6714 14.0571 13.2429 14.4857L13.1571 14.5714C12.9857 14.9143 12.7286 15.1714 12.5571 15.5143C12.5571 15.5143 12.5571 15.5143 12.5571 15.6H12.6429C13.2429 15.4286 13.7571 15.2571 14.3571 15.0857H14.4429C14.5286 15.0857 14.6143 15.1714 14.6143 15.2571C14.6143 15.3429 14.6143 15.4286 14.4429 15.4286C14.0143 15.6 13.5857 15.6857 13.1571 15.8571C12.9 15.9429 12.7286 16.0286 12.4714 16.1143C12.4714 16.1143 12.4714 16.1143 12.5571 16.1143C12.6429 16.1143 12.7286 16.2 12.8143 16.2C13.6714 16.4571 14.5286 16.6286 15.3857 16.4571C15.8143 16.3714 16.2429 16.2 16.5857 15.8571C16.9286 15.4286 17.1 14.9143 17.1 14.4V14.3143C16.8429 13.9714 16.5 13.7143 16.1571 13.5429Z" fill="#29161F"/>
<path d="M11.7 16.6286L11.6143 16.7143C11.4429 16.9714 11.2715 17.1429 11.1 17.4C10.9286 17.6571 10.7572 17.9143 10.5857 18.1714C10.5 18.2571 10.5 18.2571 10.4143 18.2571C10.3286 18.2571 10.3286 18.1714 10.2429 18.0857C10.2429 18 10.2429 18 10.3286 17.9143C10.6715 17.4 11.0143 16.9714 11.3572 16.4571C11.4429 16.3714 11.4429 16.3714 11.5286 16.2857C11.4429 16.2857 11.4429 16.2857 11.4429 16.2857C11.1857 16.3714 10.8429 16.4571 10.5857 16.5429C9.98574 16.8 9.38574 17.1429 8.95717 17.6571C8.61431 18.0857 8.35717 18.5143 8.44288 19.0286C8.44288 19.4571 8.61431 19.8 8.78574 20.2286C8.78574 20.3143 8.87145 20.3143 8.95717 20.3143C9.30002 20.4 9.64288 20.4 9.98574 20.3143C10.5 20.2286 10.9286 19.9714 11.1857 19.5429C11.4429 19.1143 11.6143 18.6857 11.7 18.2571C11.7 18.0857 11.7857 17.9143 11.7857 17.6571C11.7857 17.4 11.7 17.0571 11.7 16.6286Z" fill="#29161F"/>
<path d="M11.0143 14.3143C11.2714 14.6571 11.5286 14.9143 11.7857 15.2571V15.1714C11.7857 14.6571 11.7857 14.1429 11.7857 13.6286C11.7857 13.5429 11.7857 13.4571 11.7857 13.2857C11.7857 13.2 11.8714 13.1143 11.9572 13.1143C12.0429 13.1143 12.1286 13.2 12.1286 13.2857V13.3714C12.1286 13.9714 12.1286 14.6571 12.1286 15.2571V15.3429C12.2143 15.2571 12.2143 15.1714 12.3 15.1714C12.9 14.4 13.3286 13.6286 13.4143 12.6857C13.5 12.1714 13.4143 11.7429 13.0714 11.3143C12.8143 10.9714 12.3857 10.7143 11.9572 10.5429H11.8714C11.5286 10.7143 11.2714 10.8857 11.0143 11.0571C10.5857 11.4 10.4143 11.9143 10.4143 12.4286C10.4143 12.8571 10.5 13.2 10.6714 13.6286C10.7572 13.8857 10.8429 14.1429 11.0143 14.3143Z" fill="#29161F"/>
<path d="M10.0715 16.3714C10.4143 16.2857 10.8429 16.1143 11.1857 15.9429C11.0143 15.8571 10.8429 15.8571 10.5857 15.7714C10.2429 15.6 9.81431 15.4286 9.38574 15.3429C9.21431 15.2571 9.21431 15.1714 9.30002 15.0857C9.38574 15 9.47145 15 9.55717 15C9.90002 15.0857 10.2429 15.2571 10.6715 15.3429C10.9286 15.4286 11.2715 15.5143 11.5286 15.6C11.3572 15.4286 11.2715 15.1714 11.1 15C10.6715 14.4 10.1572 13.9714 9.47145 13.6286C9.1286 13.4571 8.70002 13.2857 8.27145 13.3714C7.67145 13.4571 7.24288 13.8 6.90002 14.2286V14.3143C6.98574 14.5714 6.98574 14.8286 7.07145 15C7.15717 15.6 7.50002 16.0286 8.10002 16.2857C8.5286 16.4571 9.04288 16.4571 9.55717 16.4571C9.7286 16.3714 9.90002 16.3714 10.0715 16.3714Z" fill="#29161F"/>
<path d="M13.3285 16.6286C13.0714 16.5429 12.7285 16.4571 12.4714 16.3714C12.4714 16.3714 12.4714 16.4571 12.5571 16.4571C12.9 16.9714 13.2428 17.4 13.5857 17.9143C13.6714 18 13.6714 18.1714 13.5857 18.1714C13.5 18.2571 13.4143 18.1714 13.3285 18.0857C12.9857 17.5714 12.5571 17.0571 12.2143 16.5429L12.1285 16.4571C12.1285 16.5429 12.1285 16.5429 12.1285 16.6286C12.1285 16.9714 12.1285 17.3143 12.1285 17.6571C12.2143 18.2571 12.3 18.8571 12.6428 19.3714C12.9 19.8 13.1571 20.1429 13.5857 20.3143C14.1 20.4857 14.6143 20.4857 15.0428 20.4C15.0428 20.4 15.1285 20.4 15.1285 20.3143C15.2143 20.0571 15.3857 19.8 15.4714 19.6286C15.6428 19.0286 15.6428 18.4286 15.2143 17.9143C14.7 17.3143 14.1 16.8 13.3285 16.6286Z" fill="#29161F"/>
<path d="M12.1286 15.9429C12.1286 15.8571 12.0429 15.7714 11.9572 15.7714C11.8715 15.7714 11.7858 15.8571 11.7858 15.9429C11.7858 16.0286 11.8715 16.1143 11.9572 16.1143C12.0429 16.1143 12.1286 16.0286 12.1286 15.9429Z" fill="#29161F"/>
<path d="M21.7143 21.9429L21.5429 19.7143C21.4571 18.8571 21.3714 17.9143 21.2857 17.0571C21.2 16.2857 21.1143 15.4286 21.1143 14.6571C21.0286 13.9714 21.0286 13.2857 20.9429 12.5143C20.8571 11.5714 20.7714 10.6286 20.6857 9.68571C20.6 8.65714 20.5143 7.71429 20.4286 6.68571C20.4286 6.25714 20.1714 6 19.7429 6C19.4 6 19.0571 6 18.7143 6H16.4V5.22857C16.4 4.88571 16.4 4.54286 16.4 4.28571C16.4 2.48571 15.2 0.857143 13.4857 0.257143C13.2286 0.171429 13.0571 0.0857143 12.8 0.0857143C12.7143 0.0857143 12.6286 0 12.4571 0H11.5143H11.3429C11.1714 0 11.0857 0.0857143 10.9143 0.0857143C10.6571 0.171429 10.4 0.171429 10.1429 0.342857C8.42857 1.2 7.57143 2.57143 7.48571 4.45714C7.48571 4.71429 7.48571 5.05714 7.48571 5.31429C7.48571 5.48571 7.48571 5.57143 7.48571 5.74286V6H5.34286C5 6 4.57143 6 4.22857 6C3.8 6 3.62857 6.25714 3.54286 6.68571V6.77143C3.54286 6.85714 3.54286 6.94286 3.54286 6.94286L3.2 10.4571L2.85714 13.8857C2.77143 14.7429 2.34286 19.4571 2.25714 20.2286C2.25714 20.3143 2.25714 20.3143 2.25714 20.3143C2.25714 20.5714 2.17143 20.9143 2.17143 21.1714C2.08571 21.8571 2.08571 22.4571 2 23.1429C2 23.3143 2 23.4857 2.17143 23.6571C2.34286 23.8286 2.51429 23.9143 2.77143 23.9143H12.2H21.2C21.4571 23.9143 21.6286 23.8286 21.7143 23.7429C21.8 23.6571 21.8857 23.4 21.8857 23.2286C21.8 22.8 21.8 22.3714 21.7143 21.9429ZM8.77143 5.65714C8.77143 5.4 8.77143 5.14286 8.77143 4.97143C8.77143 4.37143 8.77143 3.77143 8.94286 3.17143C9.37143 1.97143 10.6571 1.11429 11.9429 1.11429C12.0286 1.11429 12.2 1.11429 12.2857 1.11429C13.8286 1.28571 14.9429 2.4 15.1143 3.85714C15.2 4.28571 15.1143 4.71429 15.1143 5.14286C15.1143 5.31429 15.1143 5.48571 15.1143 5.65714V5.91429H8.68571L8.77143 5.65714ZM3.28571 22.7143L4.74286 7.2H7.57143V8.14286V8.4C7.57143 8.57143 7.57143 8.82857 7.57143 9C7.57143 9.34286 7.82857 9.6 8.17143 9.6C8.51429 9.6 8.77143 9.34286 8.77143 9C8.77143 8.65714 8.77143 8.31429 8.77143 7.97143V7.2H15.2V8.22857C15.2 8.31429 15.2 8.4 15.2 8.48571C15.2 8.65714 15.2 8.82857 15.2 9.08571C15.2 9.42857 15.4571 9.68571 15.8 9.68571C16.1429 9.68571 16.4 9.42857 16.4 9.08571C16.4 8.74286 16.4 8.4 16.4 8.05714V7.28571H19.2286L20.6 22.8H3.28571V22.7143Z" fill="#29161F"/>
</svg>
