<svg width="24" height="24" viewBox="0 0 24 24" fill="none" xmlns="http://www.w3.org/2000/svg">
<g clip-path="url(#clip0_1_56)">
<path d="M17.6075 18.5047L17.1589 18.8411C15.3645 20.2991 13.0094 21.0841 10.6542 21.0841C4.82246 21.0841 0.112183 16.3738 0.112183 10.6542C0.112183 4.82243 4.82246 0.2243 10.5421 0.2243C16.2617 0.2243 20.972 4.93458 20.972 10.6542C20.972 13.0093 20.187 15.3645 18.729 17.1589L18.3926 17.6075L23.6636 22.8785L22.7664 23.7757L17.6075 18.5047ZM10.6542 1.3458C5.60751 1.3458 1.45798 5.49533 1.45798 10.5421C1.45798 15.5888 5.60751 19.7383 10.6542 19.7383C13.1215 19.7383 15.3645 18.8411 17.0468 17.1589L17.2711 16.9346C18.9533 15.1402 19.8505 12.8972 19.8505 10.5421C19.8505 5.49533 15.701 1.3458 10.6542 1.3458Z" fill="#291720" stroke="#291720" stroke-width="0.336449" stroke-miterlimit="10"/>
</g>
<defs>
<clipPath id="clip0_1_56">
<rect width="24" height="24" fill="white"/>
</clipPath>
</defs>
</svg>
