<svg width="363" height="71" viewBox="0 0 363 71" fill="none" xmlns="http://www.w3.org/2000/svg">
<path d="M9.302 52.564C8.87267 52.564 8.612 52.2573 8.52 51.644C9.13333 49.0373 10.0687 45.526 11.326 41.11C12.2767 37.798 13.2427 34.1947 14.224 30.3C10.2987 31.588 7.186 33.152 4.886 34.992C4.794 35.084 4.62533 35.2067 4.38 35.36C3.33733 36.1267 2.816 36.7553 2.816 37.246V37.338L2.908 37.752C2.908 38.0893 2.78533 38.396 2.54 38.672C2.29467 38.9173 2.01867 39.04 1.712 39.04C1.068 39.04 0.746 38.5953 0.746 37.706C0.746 35.8967 2.55533 33.9033 6.174 31.726C7.43133 30.99 8.44333 30.484 9.21 30.208C9.91533 29.9627 10.7127 29.6407 11.602 29.242C12.43 28.874 13.12 28.598 13.672 28.414L14.776 28.046C15.328 25.7153 15.7573 23.354 16.064 20.962C16.4013 18.57 16.7387 15.81 17.076 12.682C17.3213 10.4127 17.5207 8.71066 17.674 7.576C17.766 6.84 18.2107 6.472 19.008 6.472C19.3453 6.472 19.5753 6.53333 19.698 6.656C19.8207 6.77866 19.8513 6.978 19.79 7.254C19.422 11.6087 18.502 18.34 17.03 27.448C21.5687 26.2827 27.4107 25.5313 34.556 25.194C35.568 17.5273 36.1813 13.2953 36.396 12.498C37.0707 9.738 37.4233 7.944 37.454 7.116C37.546 6.80933 37.7147 6.54866 37.96 6.334C38.236 6.11933 38.512 6.012 38.788 6.012C39.156 6.012 39.4167 6.27266 39.57 6.794C39.5393 7.59133 39.4013 8.52666 39.156 9.6L38.558 11.992C38.3127 13.28 37.9907 15.2887 37.592 18.018L36.672 25.148L47.16 24.826C47.6813 24.9793 47.942 25.24 47.942 25.608C47.942 25.884 47.8347 26.16 47.62 26.436C47.4053 26.6813 47.1447 26.85 46.838 26.942C45.1513 27.034 43.4187 27.08 41.64 27.08L36.35 27.218C36.1047 29.242 35.706 31.6493 35.154 34.44C35.0313 34.992 34.9547 35.406 34.924 35.682C34.3107 38.6567 33.82 41.2633 33.452 43.502C33.1147 45.7407 32.9 47.9793 32.808 50.218C32.7773 50.586 32.6087 50.8927 32.302 51.138C32.026 51.3833 31.75 51.506 31.474 51.506C31.0447 51.506 30.784 51.184 30.692 50.54C30.784 48.148 30.9987 45.8787 31.336 43.732C31.704 41.5853 32.1793 39.0553 32.762 36.142C32.9767 35.0993 33.268 33.5047 33.636 31.358L34.28 27.31C27.1347 27.586 21.2007 28.368 16.478 29.656C15.742 32.6613 14.7607 36.372 13.534 40.788C12.2767 45.1427 11.2953 48.7613 10.59 51.644C10.2527 52.2573 9.82333 52.564 9.302 52.564ZM50.5477 51.414C48.953 51.414 47.757 50.7853 46.9597 49.528C46.193 48.2707 45.8097 46.768 45.8097 45.02C45.8097 42.2293 46.2697 39.5307 47.1897 36.924C48.1404 34.2867 49.4284 32.1093 51.0537 30.392C52.6177 28.644 54.381 27.77 56.3437 27.77C59.165 27.77 60.5757 29.9167 60.5757 34.21C60.5757 36.3567 60.223 38.5493 59.5177 40.788C58.8124 43.0267 57.8924 45.02 56.7577 46.768C55.6537 48.516 54.5037 49.7733 53.3077 50.54C52.3877 51.1227 51.4677 51.414 50.5477 51.414ZM50.9157 49.344C51.8664 49.344 52.9244 48.516 54.0897 46.86C55.2857 45.204 56.2824 43.1493 57.0797 40.696C57.9077 38.2427 58.3217 36.1573 58.3217 34.44C58.3217 32.6613 58.2144 31.5573 57.9997 31.128C57.8157 30.668 57.5857 30.346 57.3097 30.162C57.0337 29.978 56.6044 29.886 56.0217 29.886C55.3777 29.886 54.703 30.1313 53.9977 30.622C52.587 31.5113 51.3604 33.0447 50.3177 35.222C48.6924 38.4727 47.8797 41.6313 47.8797 44.698C47.8797 46.7833 48.4777 48.2247 49.6737 49.022C50.103 49.2367 50.517 49.344 50.9157 49.344ZM68.7452 51.46C68.1319 51.46 67.5492 51.138 66.9972 50.494C66.4759 49.85 66.0466 48.9913 65.7092 47.918C65.4026 46.8447 65.2492 45.71 65.2492 44.514C65.2492 43.042 65.3106 41.5393 65.4332 40.006C64.9732 39.9447 64.7432 39.684 64.7432 39.224C64.7432 39.132 64.7739 38.9633 64.8352 38.718L65.7552 37.108C66.4299 32.324 67.7792 26.0527 69.8032 18.294C71.2446 13.0807 72.9466 9.462 74.9092 7.438C75.5532 6.76333 76.1666 6.426 76.7492 6.426C78.8652 6.426 79.9232 7.714 79.9232 10.29C79.9232 13.51 78.4972 17.19 75.6452 21.33C74.8479 22.526 73.7439 24.136 72.3332 26.16C70.8612 28.2453 69.7419 30.1467 68.9752 31.864C68.8219 32.2013 68.6072 32.4313 68.3312 32.554L68.1932 33.428C71.1679 29.6253 73.8512 27.724 76.2432 27.724C77.1939 27.724 77.8686 28.23 78.2672 29.242C78.6659 30.2233 78.8652 31.3733 78.8652 32.692C78.8652 34.8387 78.3899 37.4147 77.4392 40.42C76.5192 43.3947 75.3846 45.8633 74.0352 47.826C72.3179 50.2487 70.5546 51.46 68.7452 51.46ZM70.9532 25.056C71.8119 23.768 72.3946 22.8787 72.7012 22.388L73.4832 21.238C76.2739 16.8833 77.6692 13.5253 77.6692 11.164C77.6692 10.3973 77.6232 9.83 77.5312 9.462C77.4392 9.06333 77.2092 8.864 76.8412 8.864C76.1666 8.864 75.3692 9.784 74.4492 11.624C72.6399 15.212 70.9226 20.5633 69.2972 27.678L70.9532 25.056ZM69.2052 49.206C70.3399 49.206 71.4746 48.2553 72.6092 46.354C73.7746 44.4527 74.7559 42.076 75.5532 39.224C76.2892 36.4947 76.6572 34.5013 76.6572 33.244C76.6572 31.8947 76.5806 31.082 76.4272 30.806C76.2739 30.4687 75.8906 30.3 75.2772 30.3C74.1732 30.3 72.9926 30.944 71.7352 32.232C70.5086 33.4893 69.1286 35.36 67.5952 37.844C67.4112 39.592 67.3192 41.2173 67.3192 42.72C67.3192 47.044 67.9479 49.206 69.2052 49.206ZM89.7879 51.414C88.1933 51.414 86.9973 50.7853 86.1999 49.528C85.4333 48.2707 85.0499 46.768 85.0499 45.02C85.0499 42.2293 85.5099 39.5307 86.4299 36.924C87.3806 34.2867 88.6686 32.1093 90.2939 30.392C91.8579 28.644 93.6213 27.77 95.5839 27.77C98.4053 27.77 99.8159 29.9167 99.8159 34.21C99.8159 36.3567 99.4633 38.5493 98.7579 40.788C98.0526 43.0267 97.1326 45.02 95.9979 46.768C94.8939 48.516 93.7439 49.7733 92.5479 50.54C91.6279 51.1227 90.7079 51.414 89.7879 51.414ZM90.1559 49.344C91.1066 49.344 92.1646 48.516 93.3299 46.86C94.5259 45.204 95.5226 43.1493 96.3199 40.696C97.1479 38.2427 97.5619 36.1573 97.5619 34.44C97.5619 32.6613 97.4546 31.5573 97.2399 31.128C97.0559 30.668 96.8259 30.346 96.5499 30.162C96.2739 29.978 95.8446 29.886 95.2619 29.886C94.6179 29.886 93.9433 30.1313 93.2379 30.622C91.8273 31.5113 90.6006 33.0447 89.5579 35.222C87.9326 38.4727 87.1199 41.6313 87.1199 44.698C87.1199 46.7833 87.7179 48.2247 88.9139 49.022C89.3433 49.2367 89.7573 49.344 90.1559 49.344ZM108.307 51.46C107.326 51.46 106.559 51.3067 106.007 51C105.455 50.6627 105.011 50.1567 104.673 49.482C104.029 48.286 103.707 46.8447 103.707 45.158C103.707 42.214 104.152 39.4233 105.041 36.786C105.931 34.118 107.142 31.8793 108.675 30.07C110.147 28.3527 111.757 27.494 113.505 27.494C114.425 27.494 115.146 27.8773 115.667 28.644C116.219 29.38 116.495 30.2847 116.495 31.358C116.495 33.2287 116.005 34.854 115.023 36.234C114.073 37.614 112.785 38.764 111.159 39.684C109.749 40.512 108.031 41.34 106.007 42.168L105.915 45.48C105.915 48.056 106.697 49.344 108.261 49.344C108.967 49.344 109.703 49.1753 110.469 48.838C111.236 48.47 112.033 48.0407 112.861 47.55C113.26 47.3353 113.582 47.228 113.827 47.228C114.349 47.228 114.609 47.504 114.609 48.056C114.609 48.4547 114.226 48.93 113.459 49.482C112.723 50.034 111.849 50.5093 110.837 50.908C109.825 51.276 108.982 51.46 108.307 51.46ZM106.375 39.96C106.651 39.8067 107.265 39.4847 108.215 38.994C108.645 38.81 109.258 38.5033 110.055 38.074C111.497 37.2767 112.57 36.3567 113.275 35.314C114.011 34.2713 114.379 32.9833 114.379 31.45C114.379 30.254 113.873 29.656 112.861 29.656C111.972 29.656 110.929 30.4687 109.733 32.094C108.476 33.7193 107.464 35.8507 106.697 38.488C106.483 39.224 106.375 39.7147 106.375 39.96ZM145.359 51.276C144.868 51.276 144.515 51.184 144.301 51C144.086 50.816 144.009 50.494 144.071 50.034L146.325 36.602C146.601 34.946 146.739 33.6733 146.739 32.784C146.739 31.312 146.325 30.576 145.497 30.576C144.853 30.576 143.902 31.6033 142.645 33.658C141.418 35.682 140.191 37.982 138.965 40.558C137.738 43.1033 136.91 44.9893 136.481 46.216L135.837 47.734C135.561 48.5007 135.361 48.9913 135.239 49.206C134.687 50.402 134.135 51 133.583 51C133.276 51 133.077 50.9387 132.985 50.816C132.923 50.6627 132.893 50.356 132.893 49.896C132.893 49.436 133.491 45.894 134.687 39.27C135.913 32.646 136.619 29.1653 136.803 28.828C136.987 28.46 137.14 28.23 137.263 28.138C137.416 28.046 137.692 28 138.091 28C138.459 28 138.75 28.138 138.965 28.414C139.21 28.69 139.333 28.966 139.333 29.242C139.333 29.5487 139.302 29.7787 139.241 29.932C139.241 29.9933 139.087 30.4993 138.781 31.45C138.045 33.4433 137.355 36.3413 136.711 40.144L136.251 42.858C136.772 41.754 137.155 40.8953 137.401 40.282C138.259 38.2887 139.041 36.5407 139.747 35.038C140.483 33.5353 141.295 32.14 142.185 30.852C143.534 28.92 144.791 27.954 145.957 27.954C148.011 27.954 149.039 29.61 149.039 32.922C149.039 33.934 148.916 35.1453 148.671 36.556C148.456 37.9667 148.088 39.9293 147.567 42.444L147.337 43.64C146.938 45.848 146.708 47.6727 146.647 49.114L146.371 50.356C146.371 50.724 146.309 50.9693 146.187 51.092C146.095 51.2147 145.819 51.276 145.359 51.276ZM158.7 51.414C157.105 51.414 155.909 50.7853 155.112 49.528C154.345 48.2707 153.962 46.768 153.962 45.02C153.962 42.2293 154.422 39.5307 155.342 36.924C156.293 34.2867 157.581 32.1093 159.206 30.392C160.77 28.644 162.533 27.77 164.496 27.77C167.317 27.77 168.728 29.9167 168.728 34.21C168.728 36.3567 168.375 38.5493 167.67 40.788C166.965 43.0267 166.045 45.02 164.91 46.768C163.806 48.516 162.656 49.7733 161.46 50.54C160.54 51.1227 159.62 51.414 158.7 51.414ZM159.068 49.344C160.019 49.344 161.077 48.516 162.242 46.86C163.438 45.204 164.435 43.1493 165.232 40.696C166.06 38.2427 166.474 36.1573 166.474 34.44C166.474 32.6613 166.367 31.5573 166.152 31.128C165.968 30.668 165.738 30.346 165.462 30.162C165.186 29.978 164.757 29.886 164.174 29.886C163.53 29.886 162.855 30.1313 162.15 30.622C160.739 31.5113 159.513 33.0447 158.47 35.222C156.845 38.4727 156.032 41.6313 156.032 44.698C156.032 46.7833 156.63 48.2247 157.826 49.022C158.255 49.2367 158.669 49.344 159.068 49.344ZM177.22 51.552C175.748 51.552 174.582 51.0153 173.724 49.942C172.896 48.838 172.482 47.5193 172.482 45.986C172.482 43.2873 172.972 40.4967 173.954 37.614C174.966 34.7313 176.284 32.324 177.91 30.392C179.535 28.46 181.252 27.494 183.062 27.494C184.38 27.494 185.239 27.9693 185.638 28.92C185.73 29.0733 185.806 29.242 185.868 29.426C185.929 29.5793 185.99 29.7327 186.052 29.886C186.205 30.3153 186.358 30.5607 186.512 30.622C186.634 30.9287 186.696 31.1587 186.696 31.312C186.696 31.588 186.558 31.8487 186.282 32.094C186.036 32.3393 185.76 32.462 185.454 32.462C184.81 32.462 184.396 31.9867 184.212 31.036C184.028 30.0853 183.522 29.61 182.694 29.61C181.59 29.61 180.424 30.4687 179.198 32.186C177.971 33.8727 176.913 36.0193 176.024 38.626C175.165 41.0793 174.736 43.272 174.736 45.204C174.736 47.9333 175.732 49.298 177.726 49.298C178.738 49.298 179.673 48.8227 180.532 47.872C180.624 47.7493 180.792 47.55 181.038 47.274C181.283 46.9673 181.513 46.7527 181.728 46.63C181.942 46.4767 182.142 46.4 182.326 46.4C182.908 46.4 183.2 46.6607 183.2 47.182C183.2 47.7953 182.908 48.4547 182.326 49.16C181.743 49.8347 180.992 50.402 180.072 50.862C179.152 51.322 178.201 51.552 177.22 51.552ZM189.759 30.392C189.391 30.392 189.069 30.2847 188.793 30.07C188.548 29.8553 188.425 29.6253 188.425 29.38C188.425 29.1653 188.533 28.9813 188.747 28.828C191.323 27.724 194.543 27.172 198.407 27.172C200.063 27.172 201.428 27.2333 202.501 27.356C203.544 27.5093 204.449 27.6167 205.215 27.678C205.859 27.77 206.243 27.8773 206.365 28C206.488 28.1533 206.549 28.368 206.549 28.644C206.549 28.92 206.396 29.196 206.089 29.472C205.783 29.7173 205.399 29.84 204.939 29.84C204.418 29.84 203.544 29.702 202.317 29.426C201.029 29.1807 199.803 29.058 198.637 29.058C195.509 29.058 192.673 29.4873 190.127 30.346L189.943 30.392H189.759ZM192.151 51.69C191.63 51.69 191.369 51.3833 191.369 50.77C191.369 50.4633 191.477 50.172 191.691 49.896C191.967 49.16 192.243 48.1633 192.519 46.906C192.887 45.342 193.133 44.376 193.255 44.008L193.715 41.662L194.221 38.718C194.743 35.7127 195.233 33.5507 195.693 32.232C196.184 30.9133 196.843 30.254 197.671 30.254C197.978 30.254 198.223 30.4533 198.407 30.852L199.005 32.416C199.005 33.06 198.775 33.5507 198.315 33.888C198.193 33.98 198.039 34.026 197.855 34.026C197.671 34.026 197.503 33.934 197.349 33.75C196.644 36.3567 196.215 38.258 196.061 39.454C195.755 41.4473 195.494 42.9807 195.279 44.054C195.157 44.3913 195.019 44.882 194.865 45.526L194.451 47.044C193.654 50.1413 192.887 51.69 192.151 51.69ZM208.134 70.182C207.122 70.182 206.232 69.9213 205.466 69.4C204.73 68.8787 204.162 68.2193 203.764 67.422C203.365 66.6553 203.166 65.8887 203.166 65.122C203.166 63.3127 203.641 61.6107 204.592 60.016C205.542 58.452 206.907 56.9187 208.686 55.416C209.36 54.8027 210.909 53.5913 213.332 51.782L215.586 50.08L215.816 49.022L216.138 47.596C216.291 46.86 216.398 46.3693 216.46 46.124L216.736 44.882C216.184 46.5687 215.264 48.0713 213.976 49.39C212.718 50.7087 211.507 51.368 210.342 51.368C209.115 51.368 208.134 50.908 207.398 49.988C206.662 49.0373 206.294 47.7493 206.294 46.124C206.294 43.548 207.03 39.4847 208.502 33.934C209.238 31.174 209.606 29.6867 209.606 29.472L209.514 28.92C209.483 28.7053 209.682 28.4447 210.112 28.138C210.541 27.8313 210.894 27.678 211.17 27.678C211.783 27.678 212.09 27.9847 212.09 28.598C212.09 29.2113 211.522 31.7873 210.388 36.326C209.253 40.8647 208.686 43.9467 208.686 45.572C208.686 47.1667 208.885 48.1633 209.284 48.562C209.652 48.9607 210.112 49.16 210.664 49.16C211.829 49.16 213.071 48.1787 214.39 46.216C215.432 44.6827 216.352 42.628 217.15 40.052C217.978 37.4453 218.744 34.7007 219.45 31.818L219.68 30.898C220.017 29.518 220.308 28.6593 220.554 28.322C220.799 27.954 221.136 27.77 221.566 27.77C221.903 27.77 222.133 27.862 222.256 28.046C222.409 28.1993 222.455 28.368 222.394 28.552C221.934 30.8213 221.182 34.1487 220.14 38.534C219.189 42.5207 218.514 45.7253 218.116 48.148C218.024 48.2093 218.56 47.7187 219.726 46.676C220.339 46.0627 220.799 45.6333 221.106 45.388C221.412 45.1427 221.704 45.02 221.98 45.02C222.501 45.02 222.762 45.2807 222.762 45.802C222.762 46.17 222.639 46.4767 222.394 46.722C221.167 47.826 219.572 49.1447 217.61 50.678C216.076 58.7127 214.696 63.9413 213.47 66.364C212.795 67.7133 211.798 68.7867 210.48 69.584C209.805 69.9827 209.023 70.182 208.134 70.182ZM208.134 67.974C209.207 67.974 210.173 67.284 211.032 65.904C211.614 64.984 212.243 63.512 212.918 61.488L213.516 59.234L213.976 57.44L215.034 52.748L214.252 53.438C213.178 54.358 212.12 55.232 211.078 56.06C207.367 59.0653 205.512 61.9327 205.512 64.662C205.512 65.9193 205.926 66.8853 206.754 67.56C207.06 67.836 207.52 67.974 208.134 67.974ZM239.214 51.276C238.724 51.276 238.371 51.184 238.156 51C237.942 50.816 237.865 50.494 237.926 50.034L240.18 36.602C240.456 34.946 240.594 33.6733 240.594 32.784C240.594 31.312 240.18 30.576 239.352 30.576C238.708 30.576 237.758 31.6033 236.5 33.658C235.274 35.682 234.047 37.982 232.82 40.558C231.594 43.1033 230.766 44.9893 230.336 46.216L229.692 47.734C229.416 48.5007 229.217 48.9913 229.094 49.206C228.542 50.402 227.99 51 227.438 51C227.132 51 226.932 50.9387 226.84 50.816C226.779 50.6627 226.748 50.356 226.748 49.896C226.748 49.436 227.346 45.894 228.542 39.27C229.769 32.646 230.474 29.1653 230.658 28.828C230.842 28.46 230.996 28.23 231.118 28.138C231.272 28.046 231.548 28 231.946 28C232.314 28 232.606 28.138 232.82 28.414C233.066 28.69 233.188 28.966 233.188 29.242C233.188 29.5487 233.158 29.7787 233.096 29.932C233.096 29.9933 232.943 30.4993 232.636 31.45C231.9 33.4433 231.21 36.3413 230.566 40.144L230.106 42.858C230.628 41.754 231.011 40.8953 231.256 40.282C232.115 38.2887 232.897 36.5407 233.602 35.038C234.338 33.5353 235.151 32.14 236.04 30.852C237.39 28.92 238.647 27.954 239.812 27.954C241.867 27.954 242.894 29.61 242.894 32.922C242.894 33.934 242.772 35.1453 242.526 36.556C242.312 37.9667 241.944 39.9293 241.422 42.444L241.192 43.64C240.794 45.848 240.564 47.6727 240.502 49.114L240.226 50.356C240.226 50.724 240.165 50.9693 240.042 51.092C239.95 51.2147 239.674 51.276 239.214 51.276ZM249.612 51.552C248.508 51.552 247.633 51.2913 246.99 50.77C246.345 50.218 245.824 49.3133 245.425 48.056C245.364 47.964 245.333 47.7647 245.333 47.458C245.333 47.182 245.456 46.9213 245.701 46.676C245.947 46.4 246.223 46.262 246.53 46.262C246.806 46.262 247.066 46.4307 247.312 46.768C247.312 48.6387 248.201 49.574 249.98 49.574C251.298 49.574 252.617 48.9147 253.936 47.596C255.254 46.2467 256.466 44.4833 257.57 42.306C258.551 40.4047 259.272 38.672 259.732 37.108L260.1 35.912C260.437 34.7773 260.79 33.6427 261.158 32.508C261.556 31.3427 261.955 30.346 262.354 29.518C262.875 28.4447 263.396 27.908 263.918 27.908C264.47 27.908 264.746 28.1993 264.746 28.782C264.746 29.3033 264.454 30.392 263.872 32.048C263.228 33.98 262.691 36.28 262.262 38.948C261.832 41.5853 261.618 44.2227 261.618 46.86C261.618 48.3627 261.924 49.206 262.538 49.39L263.09 49.436C263.55 49.436 263.948 49.3287 264.286 49.114C264.378 49.0833 264.592 48.93 264.93 48.654C264.991 48.5927 265.236 48.3933 265.666 48.056C266.095 47.688 266.463 47.504 266.77 47.504C267.322 47.504 267.598 47.7953 267.598 48.378C267.598 48.746 267.322 49.1753 266.77 49.666C266.218 50.1567 265.558 50.5707 264.792 50.908C264.025 51.2453 263.32 51.414 262.676 51.414C260.713 51.414 259.732 49.2827 259.732 45.02C259.732 44.192 259.808 43.0573 259.961 41.616C258.858 44.468 257.324 46.8447 255.362 48.746C253.43 50.6167 251.513 51.552 249.612 51.552ZM277.903 51.46C276.922 51.46 276.155 51.3067 275.603 51C275.051 50.6627 274.606 50.1567 274.269 49.482C273.625 48.286 273.303 46.8447 273.303 45.158C273.303 42.214 273.748 39.4233 274.637 36.786C275.526 34.118 276.738 31.8793 278.271 30.07C279.743 28.3527 281.353 27.494 283.101 27.494C284.021 27.494 284.742 27.8773 285.263 28.644C285.815 29.38 286.091 30.2847 286.091 31.358C286.091 33.2287 285.6 34.854 284.619 36.234C283.668 37.614 282.38 38.764 280.755 39.684C279.344 40.512 277.627 41.34 275.603 42.168L275.511 45.48C275.511 48.056 276.293 49.344 277.857 49.344C278.562 49.344 279.298 49.1753 280.065 48.838C280.832 48.47 281.629 48.0407 282.457 47.55C282.856 47.3353 283.178 47.228 283.423 47.228C283.944 47.228 284.205 47.504 284.205 48.056C284.205 48.4547 283.822 48.93 283.055 49.482C282.319 50.034 281.445 50.5093 280.433 50.908C279.421 51.276 278.578 51.46 277.903 51.46ZM275.971 39.96C276.247 39.8067 276.86 39.4847 277.811 38.994C278.24 38.81 278.854 38.5033 279.651 38.074C281.092 37.2767 282.166 36.3567 282.871 35.314C283.607 34.2713 283.975 32.9833 283.975 31.45C283.975 30.254 283.469 29.656 282.457 29.656C281.568 29.656 280.525 30.4687 279.329 32.094C278.072 33.7193 277.06 35.8507 276.293 38.488C276.078 39.224 275.971 39.7147 275.971 39.96ZM303.983 51.506C303.125 51.506 302.465 51.276 302.005 50.816C301.576 50.356 301.361 49.758 301.361 49.022C301.361 48.2553 301.561 46.9367 301.959 45.066L303.017 39.5C300.779 41.1867 298.709 42.03 296.807 42.03C295.427 42.03 294.369 41.662 293.633 40.926C293.572 41.2327 293.511 41.5393 293.449 41.846C293.419 42.1527 293.373 42.4593 293.311 42.766C293.189 43.778 293.035 44.8053 292.851 45.848C292.299 49.4973 291.471 51.322 290.367 51.322C289.907 51.322 289.631 51 289.539 50.356C289.815 47.964 290.49 44.2533 291.563 39.224C292.667 34.164 293.449 30.7447 293.909 28.966C294.001 28.6593 294.17 28.3987 294.415 28.184C294.691 27.9693 294.967 27.862 295.243 27.862C295.611 27.862 295.872 28.1227 296.025 28.644C296.025 29.1347 295.749 30.7293 295.197 33.428C294.768 35.4827 294.431 37.246 294.185 38.718C294.86 39.4847 295.918 39.868 297.359 39.868C298.77 39.868 300.319 39.1627 302.005 37.752C302.527 37.292 303.017 36.8013 303.477 36.28L304.167 33.198C304.689 30.9593 305.256 29.4107 305.869 28.552C306.176 28.0613 306.59 27.816 307.111 27.816C307.633 27.816 307.893 28.1073 307.893 28.69V28.92C306.207 34.716 305.149 38.9173 304.719 41.524C304.321 43.7627 304.06 45.526 303.937 46.814C303.845 47.826 303.784 48.378 303.753 48.47L303.707 49.068C303.707 49.252 303.784 49.344 303.937 49.344C304.06 49.344 304.167 49.298 304.259 49.206C304.413 49.114 304.658 49.068 304.995 49.068C305.517 49.068 305.777 49.344 305.777 49.896C305.777 50.9693 305.179 51.506 303.983 51.506ZM325.386 51.46C325.049 51.46 324.681 51.184 324.282 50.632C323.914 50.0493 323.73 49.5433 323.73 49.114V48.332C323.73 47.3813 324.389 44.514 325.708 39.73L326.306 37.2L325.064 39.822C324.665 40.834 324.021 42.26 323.132 44.1C320.863 48.9453 318.44 51.368 315.864 51.368C314.331 51.368 313.288 50.5247 312.736 48.838C312.583 48.286 312.506 47.596 312.506 46.768C312.506 45.0507 312.828 42.858 313.472 40.19C313.84 38.6567 314.147 37.522 314.392 36.786L314.76 35.59C315.097 34.4247 315.435 33.198 315.772 31.91C316.14 30.5913 316.339 29.5947 316.37 28.92C316.462 28.6133 316.631 28.3527 316.876 28.138C317.152 27.9233 317.443 27.816 317.75 27.816C318.057 27.816 318.302 28.2147 318.486 29.012C318.486 29.8093 318.333 30.7907 318.026 31.956C317.719 33.0907 317.413 34.1027 317.106 34.992C316.83 35.8813 316.661 36.4487 316.6 36.694C315.343 40.65 314.714 44.0847 314.714 46.998C314.714 47.918 315.067 48.562 315.772 48.93C316.017 49.0527 316.355 49.114 316.784 49.114C317.643 49.114 318.67 48.2553 319.866 46.538C320.97 44.9433 322.089 42.95 323.224 40.558C324.359 38.166 325.279 35.9887 325.984 34.026C326.72 31.91 327.333 30.3613 327.824 29.38C328.315 28.3987 328.851 27.908 329.434 27.908C329.955 27.908 330.216 28.1687 330.216 28.69C330.216 29.0887 329.971 30.1773 329.48 31.956C329.02 33.4587 328.713 34.532 328.56 35.176C328.407 35.7893 328.223 36.6633 328.008 37.798L326.904 44.054L326.398 46.676C326.367 46.952 326.291 47.366 326.168 47.918C326.168 48.5007 326.26 48.884 326.444 49.068L326.858 49.62C326.95 49.712 326.996 49.9113 326.996 50.218C326.996 50.5247 326.812 50.8007 326.444 51.046C326.107 51.322 325.754 51.46 325.386 51.46ZM339.347 51.46C338.365 51.46 337.599 51.3067 337.047 51C336.495 50.6627 336.05 50.1567 335.713 49.482C335.069 48.286 334.747 46.8447 334.747 45.158C334.747 42.214 335.191 39.4233 336.081 36.786C336.97 34.118 338.181 31.8793 339.715 30.07C341.187 28.3527 342.797 27.494 344.545 27.494C345.465 27.494 346.185 27.8773 346.707 28.644C347.259 29.38 347.535 30.2847 347.535 31.358C347.535 33.2287 347.044 34.854 346.063 36.234C345.112 37.614 343.824 38.764 342.199 39.684C340.788 40.512 339.071 41.34 337.047 42.168L336.955 45.48C336.955 48.056 337.737 49.344 339.301 49.344C340.006 49.344 340.742 49.1753 341.509 48.838C342.275 48.47 343.073 48.0407 343.901 47.55C344.299 47.3353 344.621 47.228 344.867 47.228C345.388 47.228 345.649 47.504 345.649 48.056C345.649 48.4547 345.265 48.93 344.499 49.482C343.763 50.034 342.889 50.5093 341.877 50.908C340.865 51.276 340.021 51.46 339.347 51.46ZM337.415 39.96C337.691 39.8067 338.304 39.4847 339.255 38.994C339.684 38.81 340.297 38.5033 341.095 38.074C342.536 37.2767 343.609 36.3567 344.315 35.314C345.051 34.2713 345.419 32.9833 345.419 31.45C345.419 30.254 344.913 29.656 343.901 29.656C343.011 29.656 341.969 30.4687 340.773 32.094C339.515 33.7193 338.503 35.8507 337.737 38.488C337.522 39.224 337.415 39.7147 337.415 39.96ZM354.019 43.64C353.559 43.64 353.298 43.3333 353.237 42.72C356.058 30.5453 358.005 19.8427 359.079 10.612C359.263 9.17066 359.493 7.65266 359.769 6.058C360.106 4.52466 360.29 3.00666 360.321 1.504C360.413 1.19733 360.581 0.936663 360.827 0.721997C361.103 0.507332 361.379 0.399999 361.655 0.399999C362.023 0.399999 362.283 0.660665 362.437 1.182C362.375 2.50066 362.176 4.126 361.839 6.058C361.44 8.542 361.087 11.118 360.781 13.786C360.443 16.914 359.753 21.192 358.711 26.62C357.699 32.0173 356.564 37.384 355.307 42.72C354.969 43.3333 354.54 43.64 354.019 43.64ZM353.283 53.254C353.037 53.254 352.838 53.1773 352.685 53.024C352.531 52.8707 352.455 52.6867 352.455 52.472C352.455 52.2573 352.47 52.1193 352.501 52.058C351.887 51.8127 351.581 51.368 351.581 50.724C351.581 50.08 351.841 49.528 352.363 49.068C352.915 48.608 353.467 48.378 354.019 48.378C354.509 48.378 354.893 48.5467 355.169 48.884C355.445 49.1907 355.583 49.62 355.583 50.172C355.583 50.816 355.353 51.4907 354.893 52.196C354.463 52.9013 353.927 53.254 353.283 53.254Z" fill="#4F94DA"/>
</svg>
