<svg width="25" height="26" viewBox="0 0 25 26" fill="none" xmlns="http://www.w3.org/2000/svg">
<path d="M21.3476 3.65088C20.1963 2.4889 18.8252 1.56767 17.3143 0.940881C15.8034 0.314093 14.1828 -0.00571992 12.5471 7.74274e-05C5.6928 7.74274e-05 0.10673 5.58458 0.100452 12.4404C0.100452 14.6362 0.674912 16.7724 1.75948 18.6637L0 25.1131L6.59844 23.3834C8.42385 24.3768 10.4689 24.8975 12.5471 24.8981H12.5534C19.4092 24.8981 24.9937 19.3135 25 12.4514C25.0016 10.816 24.6795 9.19644 24.0524 7.68604C23.4253 6.17563 22.5055 4.80424 21.3461 3.65088H21.3476ZM12.5471 22.7917C10.6934 22.7923 8.87384 22.2935 7.27963 21.3477L6.90294 21.1217L2.98845 22.1482L4.03378 18.3294L3.78892 17.9355C2.75271 16.2879 2.20468 14.3805 2.20837 12.4342C2.20837 6.74292 6.84957 2.10015 12.5534 2.10015C13.9122 2.09771 15.2581 2.36427 16.5134 2.88445C17.7687 3.40463 18.9087 4.16814 19.8675 5.13098C20.8297 6.09006 21.5925 7.23015 22.1119 8.4855C22.6313 9.74084 22.897 11.0866 22.8936 12.4451C22.8874 18.1568 18.2462 22.7917 12.5471 22.7917V22.7917ZM18.2211 15.0475C17.9118 14.8921 16.3847 14.1403 16.0974 14.0335C15.8118 13.9315 15.603 13.8782 15.399 14.1889C15.1902 14.4981 14.5938 15.2029 14.4149 15.4053C14.2359 15.6141 14.0507 15.6376 13.74 15.4838C13.4307 15.3269 12.4278 15.0004 11.2412 13.9378C10.3152 13.1138 9.69519 12.0936 9.50998 11.7844C9.33105 11.4736 9.49271 11.3072 9.6481 11.1518C9.78465 11.0137 9.9573 10.7877 10.1127 10.6088C10.2696 10.4298 10.3214 10.298 10.4235 10.0908C10.5255 9.88047 10.4768 9.70154 10.3999 9.54616C10.3214 9.39077 9.70147 7.85731 9.43935 7.2389C9.18822 6.62834 8.93238 6.7131 8.74089 6.70525C8.56196 6.69426 8.35321 6.69426 8.14446 6.69426C7.98682 6.69818 7.83169 6.73464 7.68881 6.80136C7.54592 6.86807 7.41837 6.9636 7.31416 7.08194C7.0285 7.39272 6.22959 8.14454 6.22959 9.678C6.22959 11.2115 7.34398 12.6853 7.50094 12.894C7.65476 13.1028 9.68891 16.2403 12.8108 17.5902C13.5485 17.9119 14.1292 18.1018 14.5828 18.2462C15.3283 18.4848 16.0017 18.4487 16.5385 18.3718C17.1349 18.2808 18.3764 17.6184 18.6386 16.8917C18.896 16.1634 18.896 15.5419 18.8175 15.4116C18.7406 15.2798 18.5318 15.2029 18.2211 15.0475V15.0475Z" fill="#4F94DA"/>
</svg>
